Coordinates
version=1
nRows=14
nColumns=40
inDegrees=yes

Units are S.I. units (second, meters, Newtons, ...)
Angles are in degrees.

endheader
time	pelvis_tilt	pelvis_list	pelvis_rotation	pelvis_tx	pelvis_ty	pelvis_tz	hip_flexion_r	hip_adduction_r	hip_rotation_r	knee_angle_r	knee_angle_r_beta	ankle_angle_r	subtalar_angle_r	mtp_angle_r	hip_flexion_l	hip_adduction_l	hip_rotation_l	knee_angle_l	knee_angle_l_beta	ankle_angle_l	subtalar_angle_l	mtp_angle_l	lumbar_extension	lumbar_bending	lumbar_rotation	arm_flex_r	arm_add_r	arm_rot_r	elbow_flex_r	pro_sup_r	wrist_flex_r	wrist_dev_r	arm_flex_l	arm_add_l	arm_rot_l	elbow_flex_l	pro_sup_l	wrist_flex_l	wrist_dev_l
     55.56800000	     -5.40574869	     -5.75235281	      4.19055773	      0.87182472	      0.92692149	      0.49801815	     12.26987670	      4.03258599	    -14.36049386	     16.81766192	     16.81766192	     12.02393195	     -1.87062659	     -2.53479812	     36.90816487	    -10.94985506	      2.89642967	     57.00615612	     57.00615612	      6.19679230	    -18.62486333	     11.72561657	    -10.57235499	      5.31001278	      1.45384578	     31.90386268	    -17.13586496	      0.01935787	     79.27929095	     44.60622573	      0.00000000	      0.00000000	     -2.46366548	     -7.13438059	     -6.10073151	     26.37526071	     46.45079133	      0.00000000	      0.00000000
     55.58100000	     -5.61955797	     -5.67159623	      4.42876475	      0.87090383	      0.92707801	      0.49781379	     11.79549729	      3.99323653	    -14.55027186	     16.25236595	     16.25236595	     12.17020168	     -1.61864537	     -2.53113488	     37.23889777	    -10.54834421	      2.82443270	     53.23131050	     53.23131050	      6.81117948	    -18.56152699	     12.20120370	    -10.55597423	      5.20667655	      1.45962318	     33.44594904	    -17.09160205	     -0.13414899	     81.67630645	     44.54919902	      0.00000000	      0.00000000	     -3.36982056	     -7.07798307	     -5.97250927	     25.91449231	     46.40647409	      0.00000000	      0.00000000
     55.59400000	     -5.89560695	     -5.57728045	      4.62621107	      0.86995014	      0.92702523	      0.49743097	     11.44545622	      3.91244768	    -14.71724311	     15.79932203	     15.79932203	     12.34516363	     -1.41695319	     -2.55533970	     37.44611417	    -10.04603505	      2.87530768	     49.19777248	     49.19777248	      7.27867855	    -18.30183828	     12.50222323	    -10.46581142	      5.08269943	      1.58760753	     34.96591283	    -17.10413179	     -0.28091905	     83.77640500	     44.49990894	      0.00000000	      0.00000000	     -4.22198901	     -7.02618730	     -5.87632520	     25.60579689	     46.36938898	      0.00000000	      0.00000000
     55.60700000	     -6.16292930	     -5.54789522	      4.84625923	      0.86910852	      0.92675433	      0.49677217	     11.13018156	      3.82905313	    -15.13177450	     15.45802137	     15.45802137	     12.56979581	     -0.84840962	     -2.68313907	     37.46843931	     -9.51904015	      3.13622119	     44.97582248	     44.97582248	      7.36031673	    -17.87827297	     11.64431032	    -10.47085303	      5.09844889	      2.23492767	     35.56001111	    -17.82360251	     -0.60722001	     87.94926457	     44.41951612	      0.00000000	      0.00000000	     -4.91308130	     -6.97910366	     -5.40109833	     25.86215978	     46.24768215	      0.00000000	      0.00000000
     55.62000000	     -6.39647574	     -5.47459276	      5.03777702	      0.86833010	      0.92645866	      0.49599431	     10.80374234	      3.74384730	    -15.24240704	     15.15822420	     15.15822420	     12.78431175	     -0.76920849	     -2.71164564	     37.31321355	     -8.90664898	      3.55131233	     40.73723453	     40.73723453	      7.71823964	    -17.06846636	     11.57709005	    -10.40989398	      5.04576532	      2.21042030	     37.07561199	    -17.52593641	     -0.73938194	     89.70136908	     44.38708536	      0.00000000	      0.00000000	     -5.69281969	     -6.92294369	     -5.19930516	     25.60978293	     46.19240154	      0.00000000	      0.00000000
     55.63300000	     -6.62325224	     -5.39548552	      5.18429852	      0.86770523	      0.92603980	      0.49517191	     10.51349734	      3.63219729	    -15.34368452	     14.97577382	     14.97577382	     13.07337050	     -0.63975447	     -2.79857943	     37.04171797	     -8.37119947	      3.90008485	     36.57839239	     36.57839239	      8.05151763	    -15.76909359	     11.49012775	    -10.33166523	      4.96109145	      2.29674915	     38.39317335	    -17.36045910	     -0.72115318	     91.43058250	     44.34739594	      0.00000000	      0.00000000	     -6.44955167	     -6.91499168	     -5.08185452	     25.55160354	     46.15250942	      0.00000000	      0.00000000
     55.64600000	     -6.85930079	     -5.33779985	      5.32412573	      0.86719985	      0.92543695	      0.49419659	     10.26069198	      3.52783863	    -15.42591646	     14.85633053	     14.85633053	     13.38500497	     -0.54804032	     -2.89588172	     36.75701612	     -7.88467965	      4.26820464	     32.68673022	     32.68673022	      8.39266152	    -14.15844506	     11.46278436	    -10.23132595	      4.91690127	      2.40788551	     39.63381062	    -17.21572388	     -0.63984404	     93.07365938	     44.30635866	      0.00000000	      0.00000000	     -7.13760281	     -6.88941884	     -5.00307586	     25.57946573	     46.12128481	      0.00000000	      0.00000000
     55.65900000	     -6.99979378	     -5.33921225	      5.46646828	      0.86691302	      0.92479897	      0.49314996	      9.93639209	      3.48050203	    -15.54741781	     14.82001727	     14.82001727	     13.73730512	     -0.42975462	     -2.98307012	     36.36681151	     -7.51609608	      4.56803810	     29.14144903	     29.14144903	      8.66169883	    -12.44366397	     11.31980551	    -10.23943045	      4.93669477	      2.45783592	     40.65950571	    -17.03372532	     -0.39678129	     95.09668463	     44.25180286	      0.00000000	      0.00000000	     -7.83481953	     -6.87571293	     -4.90271844	     25.82303749	     46.08357619	      0.00000000	      0.00000000
     55.67200000	     -7.14027663	     -5.30890776	      5.57837558	      0.86684890	      0.92405044	      0.49198512	      9.61969673	      3.39999850	    -15.58082802	     14.83185629	     14.83185629	     14.16592175	     -0.42909993	     -3.06186992	     35.98763628	     -7.17093438	      4.65403175	     26.04484646	     26.04484646	      8.85138874	    -10.83280940	     11.33097321	    -10.18526937	      4.94364308	      2.55728937	     41.56608875	    -16.89000772	     -0.14054967	     96.82296358	     44.20606675	      0.00000000	      0.00000000	     -8.41699103	     -6.89139752	     -4.80564183	     26.09820845	     46.04954817	      0.00000000	      0.00000000
     55.68500000	     -7.29883702	     -5.36520730	      5.65131383	      0.86693528	      0.92312207	      0.49084242	      9.34574799	      3.40880049	    -15.58864503	     14.89305957	     14.89305957	     14.57460292	     -0.39844568	     -2.96410036	     35.74276447	     -6.95663822	      4.63086744	     23.57683325	     23.57683325	      8.87635761	     -9.43911990	     11.09660319	    -10.12527831	      4.97850828	      2.76534127	     42.25957909	    -16.93989227	      0.28618998	     98.98006302	     44.15995742	      0.00000000	      0.00000000	     -9.05624756	     -6.95989623	     -4.54451782	     26.81766205	     45.98070425	      0.00000000	      0.00000000
     55.69800000	     -7.39083669	     -5.32410197	      5.72797644	      0.86722177	      0.92227061	      0.48951253	      9.00657258	      3.31672922	    -15.50050507	     15.00187608	     15.00187608	     15.00280783	     -0.55901580	     -3.03427266	     35.42726454	     -6.66568209	      4.39280617	     21.60330762	     21.60330762	      8.83909451	     -8.44347351	     11.30879635	    -10.03860567	      4.91222514	      2.85096811	     42.94404790	    -16.63205590	      0.46419060	     99.82227543	     44.13966854	      0.00000000	      0.00000000	     -9.36077539	     -6.97185013	     -4.44588229	     26.85090800	     45.95665255	      0.00000000	      0.00000000
     55.71100000	     -7.52640172	     -5.43978460	      5.77383354	      0.86768047	      0.92117605	      0.48817703	      8.71778444	      3.38948990	    -15.43925395	     15.10840564	     15.10840564	     15.42096312	     -0.67567183	     -3.12035862	     35.32742920	     -6.54738369	      4.07253235	     20.34460856	     20.34460856	      8.69814711	     -7.84986283	     11.45254499	     -9.83418682	      5.02567627	      2.96601852	     43.55710134	    -16.34876716	      0.64109139	    100.53012928	     44.11934156	      0.00000000	      0.00000000	     -9.60448464	     -7.00320107	     -4.39879769	     26.86832305	     45.94313233	      0.00000000	      0.00000000
     55.72400000	     -7.50821754	     -5.35089111	      5.77705814	      0.86858045	      0.92028116	      0.48670921	      8.23012641	      3.26409063	    -15.19721725	     15.27379707	     15.27379707	     16.12954193	     -0.84286573	     -2.49101455	     34.92975585	     -6.33319390	      3.32908048	     19.38064962	     19.38064962	      7.93834064	     -7.47589114	     10.19001637	     -9.88366182	      4.88998291	      3.00418738	     43.66807504	    -16.27547590	      1.58761201	    102.46665983	     44.08525076	      0.00000000	      0.00000000	    -10.08087281	     -7.17168657	     -3.87423657	     27.72594523	     45.83708542	      0.00000000	      0.00000000
     55.73700000	     -7.58559744	     -5.47757788	      5.86582638	      0.86954411	      0.91901282	      0.48507557	      7.80483665	      3.34536693	    -15.20163035	     15.31128566	     15.31128566	     16.55187358	     -0.92921288	     -2.60791181	     34.95795153	     -6.23981338	      2.90298319	     19.31581743	     19.31581743	      7.62273560	     -7.57158242	     10.30653741	     -9.62176947	      4.96581246	      3.07158443	     43.75234960	    -16.15683018	      1.63247354	    102.57037773	     44.08185044	      0.00000000	      0.00000000	    -10.09728159	     -7.20592146	     -3.86770873	     27.72092043	     45.83578498	      0.00000000	      0.00000000
